<?xml version="1.0" encoding="utf-8"?>
<!-- Generator: Adobe Illustrator 19.1.0, SVG Export Plug-In . SVG Version: 6.00 Build 0)  -->
<!DOCTYPE svg PUBLIC "-//W3C//DTD SVG 1.0//EN" "http://www.w3.org/TR/2001/REC-SVG-20010904/DTD/svg10.dtd">
<svg version="1.0" id="Layer_1" xmlns="http://www.w3.org/2000/svg" xmlns:xlink="http://www.w3.org/1999/xlink" x="0px" y="0px"
	 width="40px" height="40px" viewBox="0 0 40 40" style="enable-background:new 0 0 40 40;" xml:space="preserve">
<style type="text/css">
	.st0{fill:#F7AB4E;}
	.st1{display:none;}
	.st2{display:inline;fill:#FFFFFF;}
	.st3{fill:#FFFFFF;}
</style>
<circle class="st0" cx="20" cy="20" r="20"/>
<g class="st1">
	<path class="st2" d="M21.4,29.2h-1.9V17c0-1,0-2,0.1-2.9c-0.2,0.2-0.3,0.3-0.6,0.5s-1.1,0.9-2.8,2.3l-1-1.3l4.5-3.5h1.6V29.2z"/>
</g>
<g class="st1">
	<path class="st2" d="M25.8,28.8H14.5v-1.7l4.5-4.5c1.4-1.4,2.3-2.4,2.7-3s0.8-1.2,1-1.7s0.3-1.2,0.3-1.8c0-0.9-0.3-1.6-0.8-2.2
		s-1.3-0.8-2.3-0.8c-0.7,0-1.4,0.1-2,0.4s-1.3,0.7-2.1,1.3l-1-1.3c1.6-1.3,3.3-2,5.2-2c1.6,0,2.9,0.4,3.8,1.2S25,14.6,25,16
		c0,1.1-0.3,2.2-0.9,3.2s-1.8,2.4-3.4,4L17,26.9V27h8.8V28.8z"/>
</g>
<g>
	<path class="st3" d="M25.1,15.7c0,1.1-0.3,2-0.9,2.7s-1.5,1.2-2.6,1.4v0.1c1.4,0.2,2.4,0.6,3.1,1.3c0.7,0.7,1,1.6,1,2.8
		c0,1.6-0.6,2.9-1.7,3.8s-2.7,1.3-4.8,1.3c-0.9,0-1.7-0.1-2.5-0.2s-1.5-0.4-2.2-0.7v-1.9c0.7,0.4,1.5,0.6,2.4,0.8s1.6,0.3,2.4,0.3
		c3,0,4.4-1.2,4.4-3.5c0-2.1-1.6-3.1-4.9-3.1H17v-1.7h1.7c1.3,0,2.4-0.3,3.2-0.9s1.2-1.4,1.2-2.5c0-0.8-0.3-1.5-0.9-2
		s-1.4-0.7-2.3-0.7c-0.8,0-1.5,0.1-2.1,0.3s-1.4,0.6-2.3,1.1l-1-1.3c0.7-0.6,1.5-1,2.4-1.3s1.9-0.5,2.9-0.5c1.7,0,3,0.4,3.9,1.1
		S25.1,14.4,25.1,15.7z"/>
</g>
<g class="st1">
	<path class="st2" d="M25.4,24.6h-2.5v3.9H21v-3.9h-8.3v-1.7l8.1-11.6h2.1v11.5h2.5V24.6z M21,22.8v-5.7c0-1.1,0-2.4,0.1-3.8H21
		c-0.4,0.8-0.7,1.4-1.1,1.9l-5.4,7.6H21z"/>
</g>
</svg>
