<?xml version="1.0" encoding="utf-8"?>
<!-- Generator: Adobe Illustrator 19.1.0, SVG Export Plug-In . SVG Version: 6.00 Build 0)  -->
<!DOCTYPE svg PUBLIC "-//W3C//DTD SVG 1.0//EN" "http://www.w3.org/TR/2001/REC-SVG-20010904/DTD/svg10.dtd">
<svg version="1.0" id="Layer_1" xmlns="http://www.w3.org/2000/svg" xmlns:xlink="http://www.w3.org/1999/xlink" x="0px" y="0px"
	 width="40px" height="40px" viewBox="0 0 40 40" style="enable-background:new 0 0 40 40;" xml:space="preserve">
<style type="text/css">
	.st0{opacity:0.5;}
	.st1{fill:#FFFFFF;}
	.st2{fill:#999999;}
</style>
<g class="st0">
	<path class="st1" d="M20,40C8.9,40,0,31.1,0,20S8.9,0,20,0s20,8.9,20,20S31.1,40,20,40z"/>
</g>
<path class="st2" d="M20,35c-1.9,0-3-1.3-3.8-2.3c-0.7-0.9-1.1-1.2-1.5-1.1c-3.8,1-8,2.9-8,2.9l-0.8-1.8c0.2-0.1,4.4-2,8.3-3
	c1.6-0.4,2.7,0.8,3.5,1.8c0.9,1,1.4,1.6,2.3,1.6c0.6,0,1.3-0.7,1.9-1.4c1-1.1,2.3-2.5,4.3-2c1.8,0.5,5.7,1.7,8,3l-1,1.7
	c-2.2-1.2-5.9-2.4-7.5-2.9c-0.8-0.2-1.3,0.2-2.3,1.4C22.5,33.9,21.5,35,20,35L20,35z"/>
<path class="st2" d="M16.4,15L16.4,15c1.1,0,1.9-0.3,1.9-0.4c0.1-0.1,0.2-0.2,0.3-0.3c0.1-0.1,1.5-3.3-1.8-6.6
	c-3.1-3.1-7-3.4-7.2-3.5C9.3,4.3,9.1,4.5,9,4.8c0,0.2-0.5,4.9,2.7,8.1C13.5,14.6,15.3,15,16.4,15z M16,8.6c2,2,1.9,3.9,1.7,4.8
	c-0.6-0.4-2.3-1.7-3.7-3.9c-0.1-0.2-0.4-0.2-0.5-0.1c-0.2,0.1-0.2,0.4-0.1,0.5c1.3,2,2.7,3.3,3.6,3.9c-0.1,0-0.3,0-0.5,0
	c-0.9,0-2.4-0.3-3.8-1.8c-2.1-2.1-2.4-5.2-2.4-6.5C11.4,5.8,13.9,6.5,16,8.6z"/>
<path class="st2" d="M21.6,15.7c0.1,0,0.6,0.3,1.4,0.3l0,0c0.9,0,2.2-0.3,3.5-1.6c2.3-2.3,2.5-5.1,2.5-5.2c0-0.3-0.2-0.6-0.5-0.7
	c0,0-0.2,0-0.5,0c-1,0-3.5,0.2-5.3,2c-2.4,2.4-1.3,4.8-1.3,4.9C21.3,15.6,21.4,15.7,21.6,15.7z M23.4,11.4c1.4-1.4,3.3-1.6,4.2-1.6
	c-0.2,0.9-0.7,2.5-2.1,3.8c-0.8,0.8-1.7,1.2-2.6,1.2c-0.2,0-0.3,0-0.4,0c0.4-0.5,1.2-1.6,2.6-2.4c0.2-0.1,0.3-0.4,0.1-0.6
	c-0.1-0.2-0.4-0.3-0.6-0.1c-1.2,0.8-2.1,1.6-2.6,2.2C22.2,13.2,22.5,12.3,23.4,11.4z"/>
<path class="st2" d="M24,23.3l-0.5-0.7c-0.1-0.2-0.3-0.3-0.6-0.2l-1.7,0.5L21,22.1V22V8c0-0.6-0.4-1-1-1s-1,0.4-1,1v14v0.1l-0.3,0.8
	L17,22.4c-0.2-0.1-0.4,0-0.6,0.2L16,23.3c-0.1,0.2-0.1,0.4,0,0.6l0.9,1.1l-0.5,0.8c-0.2,0.2-0.1,0.5,0.1,0.7
	c0.1,0.1,0.2,0.1,0.3,0.1c0.2,0,0.3-0.1,0.4-0.2l0.7-1.1c0.1-0.2,0.1-0.4,0-0.6L17,23.5v-0.1l1.8,0.5l0,0l-0.3,0.5
	c-0.1,0.1-0.1,0.3-0.1,0.4s0.1,0.2,0.2,0.3l1,0.6l-0.5,0.8c-0.1,0.2-0.1,0.4,0,0.6l1.5,1.8l-0.7,1c-0.2,0.2-0.1,0.5,0.1,0.7
	c0.1,0.1,0.2,0.1,0.3,0.1c0.2,0,0.3-0.1,0.4-0.2l1-1.4c0.1-0.2,0.1-0.4,0-0.6l-1.5-1.8l0.6-1c0.1-0.1,0.1-0.3,0.1-0.4
	s-0.1-0.2-0.2-0.3l-1-0.6l0.8-1.2l0.1,0.3c0.1,0.2,0.4,0.3,0.6,0.3l1.8-0.5v0.1l-0.9,1.1c-0.1,0.2-0.1,0.4,0,0.6l0.7,1.1
	c0.1,0.1,0.3,0.2,0.4,0.2s0.2,0,0.3-0.1c0.2-0.2,0.3-0.5,0.1-0.7L23.1,25l0.9-1.1C24.1,23.7,24.1,23.5,24,23.3z"/>
</svg>
