<?xml version="1.0" encoding="utf-8"?>
<!-- Generator: Adobe Illustrator 19.1.0, SVG Export Plug-In . SVG Version: 6.00 Build 0)  -->
<!DOCTYPE svg PUBLIC "-//W3C//DTD SVG 1.0//EN" "http://www.w3.org/TR/2001/REC-SVG-20010904/DTD/svg10.dtd">
<svg version="1.0" id="Layer_1" xmlns="http://www.w3.org/2000/svg" xmlns:xlink="http://www.w3.org/1999/xlink" x="0px" y="0px"
	 width="50px" height="50px" viewBox="0 0 50 50" style="enable-background:new 0 0 50 50;" xml:space="preserve">
<style type="text/css">
	.st1{fill:#FFFFFF;}
	.st2{fill:#0AC775;}
</style>
<g class="st0">
	<circle class="st1" cx="25" cy="25" r="25"/>
</g>
<path class="st2" d="M25,40c-1.9,0-3-1.3-3.8-2.3c-0.7-0.9-1.1-1.2-1.5-1.1c-3.8,1-8,2.9-8,2.9l-0.8-1.8c0.2-0.1,4.4-2,8.3-3
	c1.6-0.4,2.7,0.8,3.5,1.8c0.9,1,1.4,1.6,2.3,1.6c0.6,0,1.3-0.7,1.9-1.4c1-1.1,2.3-2.5,4.3-2c1.8,0.5,5.7,1.7,8,3l-1,1.7
	c-2.2-1.2-5.9-2.4-7.5-2.9c-0.8-0.2-1.3,0.2-2.3,1.4C27.5,38.9,26.5,40,25,40C25,40,25,40,25,40z"/>
<path class="st2" d="M21.4,20L21.4,20c1.1,0,1.9-0.3,1.9-0.4c0.1-0.1,0.2-0.2,0.3-0.3c0.1-0.1,1.5-3.3-1.8-6.6
	c-3.1-3.1-7-3.4-7.2-3.5c-0.3,0-0.6,0.2-0.6,0.5c0,0.2-0.5,4.9,2.7,8.1C18.5,19.6,20.3,20,21.4,20z M21,13.6c2,2,1.9,3.9,1.7,4.8
	c-0.6-0.4-2.3-1.7-3.7-3.9c-0.1-0.2-0.4-0.2-0.5-0.1c-0.2,0.1-0.2,0.4-0.1,0.5c1.3,2,2.7,3.3,3.6,3.9c-0.1,0-0.3,0-0.5,0
	c-0.9,0-2.4-0.3-3.8-1.8c-2.1-2.1-2.4-5.2-2.4-6.5C16.4,10.8,18.9,11.5,21,13.6z"/>
<path class="st2" d="M26.6,20.7c0.1,0,0.6,0.3,1.4,0.3h0c0.9,0,2.2-0.3,3.5-1.6c2.3-2.3,2.5-5.1,2.5-5.2c0-0.3-0.2-0.6-0.5-0.7
	c0,0-0.2,0-0.5,0c-1,0-3.5,0.2-5.3,2c-2.4,2.4-1.3,4.8-1.3,4.9C26.3,20.6,26.4,20.7,26.6,20.7z M28.4,16.4c1.4-1.4,3.3-1.6,4.2-1.6
	c-0.2,0.9-0.7,2.5-2.1,3.8c-0.8,0.8-1.7,1.2-2.6,1.2c-0.2,0-0.3,0-0.4,0c0.4-0.5,1.2-1.6,2.6-2.4c0.2-0.1,0.3-0.4,0.1-0.6
	c-0.1-0.2-0.4-0.3-0.6-0.1c-1.2,0.8-2.1,1.6-2.6,2.2C27.2,18.2,27.5,17.3,28.4,16.4z"/>
<path class="st2" d="M29,28.3l-0.5-0.7c-0.1-0.2-0.3-0.3-0.6-0.2l-1.7,0.5L26,27.1c0,0,0-0.1,0-0.1V13c0-0.6-0.4-1-1-1s-1,0.4-1,1
	v14c0,0,0,0.1,0,0.1l-0.3,0.8L22,27.4c-0.2-0.1-0.4,0-0.6,0.2L21,28.3c-0.1,0.2-0.1,0.4,0,0.6l0.9,1.1l-0.5,0.8
	c-0.2,0.2-0.1,0.5,0.1,0.7c0.1,0.1,0.2,0.1,0.3,0.1c0.2,0,0.3-0.1,0.4-0.2l0.7-1.1c0.1-0.2,0.1-0.4,0-0.6L22,28.5l0-0.1l1.8,0.5
	c0,0,0,0,0,0l-0.3,0.5c-0.1,0.1-0.1,0.3-0.1,0.4s0.1,0.2,0.2,0.3l1,0.6l-0.5,0.8c-0.1,0.2-0.1,0.4,0,0.6l1.5,1.8l-0.7,1
	c-0.2,0.2-0.1,0.5,0.1,0.7c0.1,0.1,0.2,0.1,0.3,0.1c0.2,0,0.3-0.1,0.4-0.2l1-1.4c0.1-0.2,0.1-0.4,0-0.6l-1.5-1.8l0.6-1
	c0.1-0.1,0.1-0.3,0.1-0.4c0-0.1-0.1-0.2-0.2-0.3l-1-0.6l0.8-1.2l0.1,0.3c0.1,0.2,0.4,0.3,0.6,0.3l1.8-0.5l0,0.1l-0.9,1.1
	c-0.1,0.2-0.1,0.4,0,0.6l0.7,1.1c0.1,0.1,0.3,0.2,0.4,0.2c0.1,0,0.2,0,0.3-0.1c0.2-0.2,0.3-0.5,0.1-0.7L28.1,30l0.9-1.1
	C29.1,28.7,29.1,28.5,29,28.3z"/>
</svg>
