<?xml version="1.0" encoding="utf-8"?>
<!-- Generator: Adobe Illustrator 19.1.0, SVG Export Plug-In . SVG Version: 6.00 Build 0)  -->
<!DOCTYPE svg PUBLIC "-//W3C//DTD SVG 1.0//EN" "http://www.w3.org/TR/2001/REC-SVG-20010904/DTD/svg10.dtd">
<svg version="1.0" id="Layer_1" xmlns="http://www.w3.org/2000/svg" xmlns:xlink="http://www.w3.org/1999/xlink" x="0px" y="0px"
	 width="16px" height="16px" viewBox="0 0 16 16" style="enable-background:new 0 0 16 16;" xml:space="preserve">
<style type="text/css">
	.st0{fill:#999999;}
</style>
<g>
	<path class="st0" d="M8.3,5.1c0.5,0,1-0.4,1-1s-0.4-1-1-1c-0.5,0-1,0.4-1,1S7.8,5.1,8.3,5.1z"/>
	<path class="st0" d="M9.8,10.6H9.1V6c0-0.1,0-0.2-0.2-0.2H6.8c-0.1,0-0.2,0-0.2,0.2v0.8c0,0.1,0,0.2,0.2,0.2h0.8v3.6H6.8
		c-0.1,0-0.2,0-0.2,0.2v0.8c0,0.1,0,0.2,0.2,0.2h3c0.1,0,0.2,0,0.2-0.2v-0.8C10,10.6,10,10.6,9.8,10.6z"/>
	<path class="st0" d="M8,0.3C3.8,0.3,0.3,3.8,0.3,8c0,4.2,3.4,7.7,7.7,7.7c4.2,0,7.7-3.4,7.7-7.7C15.7,3.8,12.2,0.3,8,0.3z M8,14.6
		c-3.6,0-6.6-2.9-6.6-6.6c0-3.6,2.9-6.6,6.6-6.6s6.6,2.9,6.6,6.6C14.6,11.6,11.6,14.6,8,14.6z"/>
</g>
</svg>
