<?xml version="1.0" encoding="utf-8"?>
<!-- Generator: Adobe Illustrator 19.1.0, SVG Export Plug-In . SVG Version: 6.00 Build 0)  -->
<!DOCTYPE svg PUBLIC "-//W3C//DTD SVG 1.0//EN" "http://www.w3.org/TR/2001/REC-SVG-20010904/DTD/svg10.dtd">
<svg version="1.0" id="Layer_3" xmlns="http://www.w3.org/2000/svg" xmlns:xlink="http://www.w3.org/1999/xlink" x="0px" y="0px"
	 width="50px" height="50px" viewBox="0 0 50 50" style="enable-background:new 0 0 50 50;" xml:space="preserve">
<style type="text/css">
	.st1{fill:#FFFFFF;}
	.st2{fill:#0ac775;}
</style>
<g class="st0">
	<circle class="st1" cx="25" cy="25" r="25"/>
</g>
<path class="st2" d="M25.3,31c-1.3,0-2.2,1-2.2,2.2c0,1.2,1,2.2,2.2,2.2c1.2,0,2.2-1,2.2-2.2C27.5,32,26.6,31,25.3,31z"/>
<path class="st2" d="M25.9,16.6c-1.8,0-4.9,0.9-4.9,1.5l0.1,0.3l0.7,1.8l0.3,0.3c0.3,0,1.6-0.9,3.3-0.9c1.4,0,2.2,0.7,2.2,1.9
	c0,1.4-0.9,1.9-1.9,2.3c-0.9,0.3-1.9,0.4-1.9,1v3.3c0,0.5,0.1,0.5,0.5,0.5h1.9c0.5,0,0.6-0.1,0.6-0.5v-1.8c1.5-0.5,4.2-1.4,4.2-4.8
	C31,18.6,29,16.6,25.9,16.6z"/>
</svg>
