<?xml version="1.0" encoding="utf-8"?>
<!-- Generator: Adobe Illustrator 19.1.0, SVG Export Plug-In . SVG Version: 6.00 Build 0)  -->
<!DOCTYPE svg PUBLIC "-//W3C//DTD SVG 1.0//EN" "http://www.w3.org/TR/2001/REC-SVG-20010904/DTD/svg10.dtd">
<svg version="1.0" id="Layer_3" xmlns="http://www.w3.org/2000/svg" xmlns:xlink="http://www.w3.org/1999/xlink" x="0px" y="0px"
	 width="40px" height="40px" viewBox="0 0 40 40" style="enable-background:new 0 0 40 40;" xml:space="preserve">
<style type="text/css">
	.st0{opacity:0.5;fill:#FFFFFF;}
	.st1{fill:#999999;}
</style>
<g>
	<path class="st0" d="M20,40C8.9,40,0,31.1,0,20S8.9,0,20,0s20,8.9,20,20S31.1,40,20,40z"/>
</g>
<path class="st1" d="M20.3,26C19,26,18,27,18,28.3c0,1.1,1,2.1,2.3,2.1c1.1,0,2.1-1,2.1-2.1C22.6,27,21.6,26,20.3,26z"/>
<path class="st1" d="M20.9,11.6c-1.7,0-4.9,0.9-4.9,1.6v0.3l0.7,1.7l0.3,0.3c0.3,0,1.7-0.9,3.3-0.9c1.4,0,2.1,0.7,2.1,1.9
	c0,1.4-0.9,2-1.9,2.3c-0.9,0.3-1.9,0.4-1.9,1V23c0,0.4,0.1,0.6,0.6,0.6h1.9c0.4,0,0.6-0.1,0.6-0.6v-1.7c1.6-0.6,4.3-1.4,4.3-4.9
	C26,13.6,24,11.6,20.9,11.6z"/>
</svg>
