<?xml version="1.0" encoding="utf-8"?>
<!-- Generator: Adobe Illustrator 19.1.0, SVG Export Plug-In . SVG Version: 6.00 Build 0)  -->
<!DOCTYPE svg PUBLIC "-//W3C//DTD SVG 1.0//EN" "http://www.w3.org/TR/2001/REC-SVG-20010904/DTD/svg10.dtd">
<svg version="1.0" id="Layer_1" xmlns="http://www.w3.org/2000/svg" xmlns:xlink="http://www.w3.org/1999/xlink" x="0px" y="0px"
	 width="40px" height="40px" viewBox="0 0 40 40" style="enable-background:new 0 0 40 40;" xml:space="preserve">
<style type="text/css">
	.st0{opacity:0.5;}
	.st1{fill:#FFFFFF;}
	.st2{fill:#999999;}
</style>
<g class="st0">
	<circle class="st1" cx="20" cy="20" r="20"/>
</g>
<g>
	<circle class="st2" cx="13.1" cy="14.7" r="1.6"/>
	<path class="st2" d="M17.9,16.3h9.6c0.6,0,1.1-0.5,1.1-1.1s-0.5-1.1-1.1-1.1h-9.6c-0.6,0-1.1,0.5-1.1,1.1S17.3,16.3,17.9,16.3z"/>
	<circle class="st2" cx="13.1" cy="20" r="1.6"/>
	<path class="st2" d="M27.4,19.5h-9.6c-0.6,0-1.1,0.5-1.1,1.1s0.5,1.1,1.1,1.1h9.6c0.6,0,1.1-0.5,1.1-1.1S28,19.5,27.4,19.5z"/>
	<circle class="st2" cx="13.1" cy="25.3" r="1.6"/>
	<path class="st2" d="M27.4,24.8h-9.6c-0.6,0-1.1,0.5-1.1,1.1s0.5,1.1,1.1,1.1h9.6c0.6,0,1.1-0.5,1.1-1.1S28,24.8,27.4,24.8z"/>
</g>
</svg>
