<?xml version="1.0" encoding="utf-8"?>
<!-- Generator: Adobe Illustrator 19.1.0, SVG Export Plug-In . SVG Version: 6.00 Build 0)  -->
<!DOCTYPE svg PUBLIC "-//W3C//DTD SVG 1.0//EN" "http://www.w3.org/TR/2001/REC-SVG-20010904/DTD/svg10.dtd">
<svg version="1.0" id="Layer_1" xmlns="http://www.w3.org/2000/svg" xmlns:xlink="http://www.w3.org/1999/xlink" x="0px" y="0px"
	 width="40px" height="40px" viewBox="0 0 40 40" style="enable-background:new 0 0 40 40;" xml:space="preserve">
<style type="text/css">
	.st0{fill:#0ac775;}
	.st1{fill:#FFFFFF;}
</style>
<g>
	<circle class="st0" cx="20" cy="20" r="20"/>
</g>
<g>
	<path class="st1" d="M33.8,14.5c-0.1-0.2-0.3-0.3-0.4-0.5c-0.1-0.1-0.1-0.3-0.1-0.4c-0.1-0.4-0.3-0.5-0.6-0.2
		c-0.1,0-0.1-0.1-0.3-0.1c-0.1,0.4-0.2,0.7-0.2,1c0,0.5-0.2,0.8-0.7,1c-0.3,0.1-0.6,0.2-1,0.2c-0.3,0-0.5,0.2-0.6,0.4
		c-0.1,0.1-0.2,0.3-0.2,0.4c0,0.1,0.1,0.2,0.1,0.3C29.6,16.9,29.3,17,29,17c-0.1,0-0.2,0-0.4,0.1c-0.1,0-0.1,0.2-0.1,0.2
		c0.2,0.2,0,0.4-0.1,0.5c-0.3,0.2-0.6,0.4-0.9,0.6c-0.4,0.3-0.6,0.3-1,0.1c0.1-0.2,0.2-0.4,0.3-0.5c0,0,0-0.1,0-0.1
		c-0.1-0.2-0.1-0.5-0.2-0.7c-0.1-0.2-0.2-0.2-0.3,0c-0.1,0.1-0.1,0.2-0.2,0.2c0,0-0.1,0-0.1-0.1c0.1-0.1,0.1-0.2,0.2-0.3
		c0.2-0.3,0.1-0.7-0.2-0.8c0,0-0.1,0-0.1,0c-0.5,0-0.8-0.2-1.1-0.5c-0.2,0-0.4-0.1-0.7-0.2c-0.2-0.1-0.5-0.2-0.7-0.3
		c-0.2,0.1-0.3,0.2-0.5,0.3c-0.2,0.2-0.3,0.1-0.5-0.1c-0.2,0.1-0.3,0.1-0.5,0.2c0,0,0-0.1-0.1-0.1c0.2-0.1,0.3-0.2,0.5-0.4
		c-0.4,0-0.9-0.2-1.2-0.7c0,0,0-0.1-0.1-0.1c-0.1,0-0.2,0-0.3-0.1c-0.1,0-0.3,0-0.4-0.1c-0.1,0-0.3-0.1-0.4-0.1c-4,0-8-0.6-11.9-1.7
		v0.8c-0.1-0.1-0.1-0.2-0.2-0.3c-0.2-0.1-0.5-0.3-0.8-0.4c0,0.2,0,0.4,0,0.6c0,0.8-0.3,1.6-0.6,2.4c-0.2,0.4-0.5,0.8-0.4,1.4
		c0,0.3-0.1,0.5-0.3,0.8C6,17.6,6,17.8,6,18c0,0.1,0.1,0.3,0.1,0.4c-0.2,0.4,0.2,0.8,0.2,1.1c0,0,0,0,0,0c0,0.1,0.1,0.2,0.1,0.4
		c0,0.1,0,0.3,0,0.3c0.1,0.1,0.3,0.2,0.1,0.4c0,0,0,0.1,0,0.2c0.1,0.2,0.2,0.4,0.3,0.6c0.1,0.1,0.1,0.3,0.1,0.4
		c-0.1,0.2,0,0.3,0.2,0.4c0.2,0.1,0.3,0.1,0.4,0.2c0.1,0.2,0.3,0.3,0.5,0.4c0.2,0.2,0.4,0.4,0.4,0.7c0,0.2,0,0.2,0.2,0.3
		c0.5,0.1,0.9,0,1.4,0.4c0.3,0.3,0.8,0.5,1.2,0.7c0.7,0.5,1.4,0.4,2.2,0.5c0-0.1,0-0.2,0.1-0.3c0.2,0,0.5,0,0.7,0.1
		c0.1,0,0.2,0.1,0.3,0.2c0.2,0.2,0.4,0.4,0.5,0.6c0.1,0.1,0.2,0.3,0.3,0.5c0.1,0.1,0.1,0.3,0.2,0.4c0.2,0.2,0.4,0.3,0.6,0.4
		c0.1-0.1,0.2-0.2,0.2-0.3c0.1-0.2,0.2-0.3,0.3-0.3c0.2,0,0.4,0,0.5,0.1c0.2,0.2,0.3,0.4,0.5,0.6c0.2,0.3,0.3,0.5,0.5,0.8
		c0,0,0.1,0.1,0.1,0.2c0.1,0.4,0.2,0.7,0.6,0.8c0.2,0.1,0.4,0.1,0.5,0.2c0.1,0,0.2,0,0.3,0c-0.1-0.3-0.2-0.5-0.1-0.7
		c0-0.6,0.4-0.9,0.9-1.1c0.2-0.1,0.3-0.1,0.5-0.3c0.1-0.2,0.2-0.3,0.5-0.4c0.3-0.1,0.7-0.2,1,0c0.1,0,0.3,0,0.4-0.1c0,0,0-0.1,0-0.1
		c0.3,0.2,0.6,0.5,1.1,0.4c0.1-0.3,0.3-0.5,0.6-0.6c0,0,0-0.1-0.1-0.2c0.3-0.1,0.6-0.2,0.7-0.1c0.3,0.2,0.4,0,0.6,0
		c0.3-0.1,0.6,0,0.8,0.2c0.1,0,0.1,0.1,0.2,0.3c0.2-0.1,0.4-0.1,0.5-0.3c0.2-0.2,0.4-0.1,0.6,0.1c0.1,0.1,0.2,0.3,0.3,0.3
		c0.3,0.1,0.3,0.3,0.2,0.4c-0.1,0.3,0.1,0.5,0.2,0.7c0.1,0.2,0.3,0.4,0.5,0.6c0.1,0.1,0.1,0.3,0.2,0.3c0.2,0.1,0.3,0.2,0.4,0.4
		c0,0,0.1,0.1,0.2,0.1c0.2,0,0.4-0.1,0.4-0.4c0-0.4,0.1-0.7-0.2-1.1c-0.1-0.2-0.2-0.4-0.3-0.6c0-0.1,0-0.2-0.1-0.3
		c-0.3-0.2-0.4-0.6-0.5-0.9c-0.3-0.6,0-1.4,0.4-1.7c0.2-0.2,0.5-0.4,0.6-0.7c0-0.1,0.2-0.2,0.3-0.3c0.1-0.1,0.2-0.2,0.2-0.2
		c0.2-0.2,0.3-0.3,0.5-0.5c0.1-0.1,0.2-0.1,0.2-0.2c-0.1-0.1-0.1-0.2-0.2-0.2c0.2-0.1,0.4-0.2,0.4-0.4c0,0,0,0-0.1-0.1
		c-0.1,0-0.1,0-0.2-0.1c0,0,0.1,0,0.1,0c-0.2-0.3-0.4-0.7-0.4-1c0-0.1,0-0.3-0.1-0.4c0,0,0.1,0.1,0.1,0.1c0-0.1,0-0.2,0.1-0.3
		c0,0,0,0,0,0c0-0.5,0.3-1,0.7-1.3c0,0,0-0.1,0-0.1c0.3-0.2,0.6-0.4,0.8-0.6c-0.1-0.1-0.1-0.1-0.1-0.2c0,0,0,0,0,0
		c0.2-0.1,0.3-0.3,0.5-0.4c0.4-0.2,0-0.3-0.1-0.5c0,0,0-0.1,0-0.1c0-0.3,0-0.7,0.3-0.9c0.2-0.1,0.3-0.3,0.4-0.4
		c0.2-0.2,0.4-0.3,0.7-0.5C33.9,14.7,33.9,14.6,33.8,14.5z"/>
</g>
</svg>
