<?xml version="1.0" encoding="utf-8"?>
<!-- Generator: Adobe Illustrator 19.1.0, SVG Export Plug-In . SVG Version: 6.00 Build 0)  -->
<!DOCTYPE svg PUBLIC "-//W3C//DTD SVG 1.0//EN" "http://www.w3.org/TR/2001/REC-SVG-20010904/DTD/svg10.dtd">
<svg version="1.0" id="Layer_1" xmlns="http://www.w3.org/2000/svg" xmlns:xlink="http://www.w3.org/1999/xlink" x="0px" y="0px"
	 width="50px" height="50px" viewBox="0 0 50 50" style="enable-background:new 0 0 50 50;" xml:space="preserve">
<style type="text/css">
	.st1{fill:#0ac775;}
	.st2{display:none;}
	.st3{display:inline;fill:#FFFFFF;}
	.st4{fill:#FFFFFF;}
</style>
<g class="st0">
	<circle class="st1" cx="25" cy="25" r="25"/>
</g>
<g class="st2">
	<circle class="st3" cx="18.1" cy="19.7" r="1.6"/>
	<path class="st3" d="M22.9,21.3h9.6c0.6,0,1.1-0.5,1.1-1.1s-0.5-1.1-1.1-1.1h-9.6c-0.6,0-1.1,0.5-1.1,1.1S22.3,21.3,22.9,21.3z"/>
	<circle class="st3" cx="18.1" cy="25" r="1.6"/>
	<path class="st3" d="M32.4,24.5h-9.6c-0.6,0-1.1,0.5-1.1,1.1s0.5,1.1,1.1,1.1h9.6c0.6,0,1.1-0.5,1.1-1.1S33,24.5,32.4,24.5z"/>
	<circle class="st3" cx="18.1" cy="30.3" r="1.6"/>
	<path class="st3" d="M32.4,29.8h-9.6c-0.6,0-1.1,0.5-1.1,1.1s0.5,1.1,1.1,1.1h9.6c0.6,0,1.1-0.5,1.1-1.1S33,29.8,32.4,29.8z"/>
</g>
<g>
	<path class="st4" d="M38.8,19.5c-0.1-0.2-0.3-0.3-0.4-0.5c-0.1-0.1-0.1-0.3-0.1-0.4c-0.1-0.4-0.3-0.5-0.6-0.2
		c-0.1,0-0.1-0.1-0.3-0.1c-0.1,0.4-0.2,0.7-0.2,1c0,0.5-0.2,0.8-0.7,1c-0.3,0.1-0.6,0.2-1,0.2c-0.3,0-0.5,0.2-0.6,0.4
		c-0.1,0.1-0.2,0.3-0.2,0.4c0,0.1,0.1,0.2,0.1,0.3C34.6,21.9,34.3,22,34,22c-0.1,0-0.2,0-0.4,0.1c-0.1,0-0.1,0.2-0.1,0.2
		c0.2,0.2,0,0.4-0.1,0.5c-0.3,0.2-0.6,0.4-0.9,0.6c-0.4,0.3-0.6,0.3-1,0.1c0.1-0.2,0.2-0.4,0.3-0.5c0,0,0-0.1,0-0.1
		c-0.1-0.2-0.1-0.5-0.2-0.7c-0.1-0.2-0.2-0.2-0.3,0c-0.1,0.1-0.1,0.2-0.2,0.2c0,0-0.1,0-0.1-0.1c0.1-0.1,0.1-0.2,0.2-0.3
		c0.2-0.3,0.1-0.7-0.2-0.8c0,0-0.1,0-0.1,0c-0.5,0-0.8-0.2-1.1-0.5c-0.2,0-0.4-0.1-0.7-0.2c-0.2-0.1-0.5-0.2-0.7-0.3
		c-0.2,0.1-0.3,0.2-0.5,0.3c-0.2,0.2-0.3,0.1-0.5-0.1c-0.2,0.1-0.3,0.1-0.5,0.2c0,0,0-0.1-0.1-0.1c0.2-0.1,0.3-0.2,0.5-0.4
		c-0.4,0-0.9-0.2-1.2-0.7c0,0,0-0.1-0.1-0.1c-0.1,0-0.2,0-0.3-0.1c-0.1,0-0.3,0-0.4-0.1c-0.1,0-0.3-0.1-0.4-0.1c-4,0-8-0.6-11.9-1.7
		v0.8c-0.1-0.1-0.1-0.2-0.2-0.3c-0.2-0.1-0.5-0.3-0.8-0.4c0,0.2,0,0.4,0,0.6c0,0.8-0.3,1.6-0.6,2.4c-0.2,0.4-0.5,0.8-0.4,1.4
		c0,0.3-0.1,0.5-0.3,0.8C11,22.6,11,22.8,11,23c0,0.1,0.1,0.3,0.1,0.4c-0.2,0.4,0.2,0.8,0.2,1.1c0,0,0,0,0,0c0,0.1,0.1,0.2,0.1,0.4
		c0,0.1,0,0.3,0,0.3c0.1,0.1,0.3,0.2,0.1,0.4c0,0,0,0.1,0,0.2c0.1,0.2,0.2,0.4,0.3,0.6c0.1,0.1,0.1,0.3,0.1,0.4
		c-0.1,0.2,0,0.3,0.2,0.4c0.2,0.1,0.3,0.1,0.4,0.2c0.1,0.2,0.3,0.3,0.5,0.4c0.2,0.2,0.4,0.4,0.4,0.7c0,0.2,0,0.2,0.2,0.3
		c0.5,0.1,0.9,0,1.4,0.4c0.3,0.3,0.8,0.5,1.2,0.7c0.7,0.5,1.4,0.4,2.2,0.5c0-0.1,0-0.2,0.1-0.3c0.2,0,0.5,0,0.7,0.1
		c0.1,0,0.2,0.1,0.3,0.2c0.2,0.2,0.4,0.4,0.5,0.6c0.1,0.1,0.2,0.3,0.3,0.5c0.1,0.1,0.1,0.3,0.2,0.4c0.2,0.2,0.4,0.3,0.6,0.4
		c0.1-0.1,0.2-0.2,0.2-0.3c0.1-0.2,0.2-0.3,0.3-0.3c0.2,0,0.4,0,0.5,0.1c0.2,0.2,0.3,0.4,0.5,0.6c0.2,0.3,0.3,0.5,0.5,0.8
		c0,0,0.1,0.1,0.1,0.2c0.1,0.4,0.2,0.7,0.6,0.8c0.2,0.1,0.4,0.1,0.5,0.2c0.1,0,0.2,0,0.3,0c-0.1-0.3-0.2-0.5-0.1-0.7
		c0-0.6,0.4-0.9,0.9-1.1c0.2-0.1,0.3-0.1,0.5-0.3c0.1-0.2,0.2-0.3,0.5-0.4c0.3-0.1,0.7-0.2,1,0c0.1,0,0.3,0,0.4-0.1c0,0,0-0.1,0-0.1
		c0.3,0.2,0.6,0.5,1.1,0.4c0.1-0.3,0.3-0.5,0.6-0.6c0,0,0-0.1-0.1-0.2c0.3-0.1,0.6-0.2,0.7-0.1c0.3,0.2,0.4,0,0.6,0
		c0.3-0.1,0.6,0,0.8,0.2c0.1,0,0.1,0.1,0.2,0.3c0.2-0.1,0.4-0.1,0.5-0.3c0.2-0.2,0.4-0.1,0.6,0.1c0.1,0.1,0.2,0.3,0.3,0.3
		c0.3,0.1,0.3,0.3,0.2,0.4c-0.1,0.3,0.1,0.5,0.2,0.7c0.1,0.2,0.3,0.4,0.5,0.6c0.1,0.1,0.1,0.3,0.2,0.3c0.2,0.1,0.3,0.2,0.4,0.4
		c0,0,0.1,0.1,0.2,0.1c0.2,0,0.4-0.1,0.4-0.4c0-0.4,0.1-0.7-0.2-1.1c-0.1-0.2-0.2-0.4-0.3-0.6c0-0.1,0-0.2-0.1-0.3
		c-0.3-0.2-0.4-0.6-0.5-0.9c-0.3-0.6,0-1.4,0.4-1.7c0.2-0.2,0.5-0.4,0.6-0.7c0-0.1,0.2-0.2,0.3-0.3c0.1-0.1,0.2-0.2,0.2-0.2
		c0.2-0.2,0.3-0.3,0.5-0.5c0.1-0.1,0.2-0.1,0.2-0.2c-0.1-0.1-0.1-0.2-0.2-0.2c0.2-0.1,0.4-0.2,0.4-0.4c0,0,0,0-0.1-0.1
		c-0.1,0-0.1,0-0.2-0.1c0,0,0.1,0,0.1,0c-0.2-0.3-0.4-0.7-0.4-1c0-0.1,0-0.3-0.1-0.4c0,0,0.1,0.1,0.1,0.1c0-0.1,0-0.2,0.1-0.3
		c0,0,0,0,0,0c0-0.5,0.3-1,0.7-1.3c0,0,0-0.1,0-0.1c0.3-0.2,0.6-0.4,0.8-0.6c-0.1-0.1-0.1-0.1-0.1-0.2c0,0,0,0,0,0
		c0.2-0.1,0.3-0.3,0.5-0.4c0.4-0.2,0-0.3-0.1-0.5c0,0,0-0.1,0-0.1c0-0.3,0-0.7,0.3-0.9c0.2-0.1,0.3-0.3,0.4-0.4
		c0.2-0.2,0.4-0.3,0.7-0.5C38.9,19.7,38.9,19.6,38.8,19.5z"/>
</g>
</svg>
