<?xml version="1.0" encoding="utf-8"?>
<!-- Generator: Adobe Illustrator 19.1.0, SVG Export Plug-In . SVG Version: 6.00 Build 0)  -->
<!DOCTYPE svg PUBLIC "-//W3C//DTD SVG 1.0//EN" "http://www.w3.org/TR/2001/REC-SVG-20010904/DTD/svg10.dtd">
<svg version="1.0" id="Layer_1_copy" xmlns="http://www.w3.org/2000/svg" xmlns:xlink="http://www.w3.org/1999/xlink" x="0px"
	 y="0px" width="40px" height="40px" viewBox="0 0 40 40" style="enable-background:new 0 0 40 40;" xml:space="preserve">
<style type="text/css">
	.st0{opacity:0.5;}
	.st1{fill:#FFFFFF;}
	.st2{fill:none;stroke:#999999;stroke-width:2;stroke-miterlimit:10;}
	.st3{fill:#999999;}
</style>
<g class="st0">
	<circle class="st1" cx="20" cy="20" r="20"/>
</g>
<path class="st2" d="M6.2,33.5c0,0,13.4-8,27.6,0"/>
<path class="st3" d="M20.7,15.8c0,0,0.5,2.3,2.8,3.7S22.5,16.1,20.7,15.8z"/>
<path class="st3" d="M22.4,8.3c0,0-1.9,1.3-2.4,4C19.6,14.9,22.9,10.1,22.4,8.3z"/>
<path class="st3" d="M26.9,8.6c0,0-1.3,1.9-0.8,4.6S27.9,10.2,26.9,8.6z"/>
<path class="st3" d="M29.9,13.9c0,0-1.9,1.3-2.4,4C27,20.5,30.3,15.7,29.9,13.9z"/>
<path class="st3" d="M16.5,16.4c0,0-0.4,2.3,1.2,4.5C19.3,23,18.1,17.4,16.5,16.4z"/>
<path class="st3" d="M28.8,21.8c0,0-2.3,0.2-4.1,2.3C23,26.1,28.3,23.6,28.8,21.8z"/>
<path class="st3" d="M22.1,22.1c0,0-2.1,1.1-2.9,3.7C18.4,28.3,22.2,24,22.1,22.1z"/>
</svg>
