<?xml version="1.0" encoding="utf-8"?>
<!-- Generator: Adobe Illustrator 19.1.0, SVG Export Plug-In . SVG Version: 6.00 Build 0)  -->
<!DOCTYPE svg PUBLIC "-//W3C//DTD SVG 1.0//EN" "http://www.w3.org/TR/2001/REC-SVG-20010904/DTD/svg10.dtd">
<svg version="1.0" id="Layer_1_copy" xmlns="http://www.w3.org/2000/svg" xmlns:xlink="http://www.w3.org/1999/xlink" x="0px"
	 y="0px" width="50px" height="50px" viewBox="0 0 50 50" style="enable-background:new 0 0 50 50;" xml:space="preserve">
<style type="text/css">
	.st1{fill:#0ac775;}
	.st2{fill:none;stroke:#FFFFFF;stroke-width:2;stroke-miterlimit:10;}
	.st3{fill:#FFFFFF;}
</style>
<g class="st0">
	<circle class="st1" cx="25" cy="25" r="25"/>
</g>
<path class="st2" d="M11.2,38.5c0,0,13.4-8,27.6,0"/>
<path class="st3" d="M25.7,20.8c0,0,0.5,2.3,2.8,3.7C30.8,25.9,27.5,21.1,25.7,20.8z"/>
<path class="st3" d="M27.4,13.3c0,0-1.9,1.3-2.4,4C24.6,19.9,27.9,15.1,27.4,13.3z"/>
<path class="st3" d="M31.9,13.6c0,0-1.3,1.9-0.8,4.6C31.6,20.9,32.9,15.2,31.9,13.6z"/>
<path class="st3" d="M34.9,18.9c0,0-1.9,1.3-2.4,4C32,25.5,35.3,20.7,34.9,18.9z"/>
<path class="st3" d="M21.5,21.4c0,0-0.4,2.3,1.2,4.5C24.3,28,23.1,22.4,21.5,21.4z"/>
<path class="st3" d="M33.8,26.8c0,0-2.3,0.2-4.1,2.3C28,31.1,33.3,28.6,33.8,26.8z"/>
<path class="st3" d="M27.1,27.1c0,0-2.1,1.1-2.9,3.7C23.4,33.3,27.2,29,27.1,27.1z"/>
</svg>
