<?xml version="1.0" encoding="utf-8"?>
<!-- Generator: Adobe Illustrator 19.1.0, SVG Export Plug-In . SVG Version: 6.00 Build 0)  -->
<!DOCTYPE svg PUBLIC "-//W3C//DTD SVG 1.0//EN" "http://www.w3.org/TR/2001/REC-SVG-20010904/DTD/svg10.dtd">
<svg version="1.0" id="Layer_1_copy" xmlns="http://www.w3.org/2000/svg" xmlns:xlink="http://www.w3.org/1999/xlink" x="0px"
	 y="0px" width="40px" height="40px" viewBox="0 0 40 40" style="enable-background:new 0 0 40 40;" xml:space="preserve">
<style type="text/css">
	.st0{opacity:0.5;}
	.st1{fill:#FFFFFF;}
	.st2{fill:#999999;}
</style>
<g class="st0">
	<path class="st1" d="M20,40C8.9,40,0,31.1,0,20S8.9,0,20,0s20,8.9,20,20S31.1,40,20,40z"/>
</g>
<path class="st2" d="M20,22c-0.6,0-1-0.4-1-1V9c0-0.6,0.4-1,1-1s1,0.4,1,1v12C21,21.6,20.6,22,20,22z"/>
<path class="st2" d="M16.4,15.7L16.4,15.7c1.1,0,1.9-0.3,1.9-0.4c0.1-0.1,0.2-0.2,0.3-0.3c0.1-0.1,1.5-3.3-1.8-6.6
	c-3-3.1-7-3.4-7.1-3.4C9.3,5,9.1,5.2,9,5.5c0,0.2-0.5,4.9,2.7,8.1C13.5,15.3,15.3,15.7,16.4,15.7z M16,9.3c2,2,1.9,3.9,1.7,4.8
	c-0.6-0.4-2.3-1.7-3.7-3.9c-0.1-0.2-0.4-0.2-0.5-0.1c-0.2,0.1-0.2,0.4-0.1,0.5c1.3,2,2.7,3.3,3.6,3.9c-0.1,0-0.3,0-0.5,0
	c-0.9,0-2.4-0.3-3.8-1.8c-2.1-2.1-2.4-5.2-2.4-6.5C11.4,6.5,13.9,7.2,16,9.3z"/>
<path class="st2" d="M21.6,16.4c0.1,0,0.6,0.3,1.4,0.3l0,0c0.9,0,2.2-0.3,3.5-1.6C28.8,12.9,29,10,29,9.9c0-0.3-0.2-0.6-0.5-0.7
	c0,0-0.2,0-0.5,0c-1,0-3.5,0.2-5.3,2c-2.4,2.4-1.3,4.8-1.3,4.9C21.3,16.3,21.4,16.4,21.6,16.4z M23.4,12.1c1.4-1.4,3.3-1.6,4.2-1.6
	c-0.2,0.9-0.7,2.5-2.1,3.8c-0.8,0.8-1.7,1.2-2.6,1.2c-0.2,0-0.3,0-0.4,0c0.4-0.5,1.2-1.6,2.6-2.4c0.2-0.1,0.3-0.4,0.1-0.6
	c-0.1-0.2-0.4-0.3-0.6-0.1c-1.2,0.8-2.1,1.6-2.6,2.2C22.2,14,22.5,13,23.4,12.1z"/>
<path class="st2" d="M27.9,21H12.1c-0.3,0-0.6,0.2-0.6,0.6v5.1c0,0.3,0.2,0.6,0.6,0.6h1.3l0.9,9c0,0.3,0.3,0.5,0.6,0.5h10.4
	c0.3,0,0.5-0.2,0.6-0.5l0.9-9h1.3c0.3,0,0.6-0.2,0.6-0.6v-5.1C28.5,21.2,28.3,21,27.9,21z M24.7,35.6h-9.4l-0.9-8.4h11.2L24.7,35.6z
	 M27.4,26.1h-1.2H13.8h-1.2v-4h14.8L27.4,26.1L27.4,26.1z"/>
</svg>
