<?xml version="1.0" encoding="utf-8"?>
<!-- Generator: Adobe Illustrator 19.1.0, SVG Export Plug-In . SVG Version: 6.00 Build 0)  -->
<!DOCTYPE svg PUBLIC "-//W3C//DTD SVG 1.0//EN" "http://www.w3.org/TR/2001/REC-SVG-20010904/DTD/svg10.dtd">
<svg version="1.0" id="Layer_1_copy" xmlns="http://www.w3.org/2000/svg" xmlns:xlink="http://www.w3.org/1999/xlink" x="0px"
	 y="0px" width="40px" height="40px" viewBox="0 0 40 40" style="enable-background:new 0 0 40 40;" xml:space="preserve">
<style type="text/css">
	.st0{fill:#FFFFFF;}
	.st1{fill:#0AC775;}
</style>
<g>
	<path class="st0" d="M20,39C9.5,39,1,30.5,1,20S9.5,1,20,1s19,8.5,19,19S30.5,39,20,39z"/>
	<path class="st0" d="M20,2c9.9,0,18,8.1,18,18s-8.1,18-18,18S2,29.9,2,20S10.1,2,20,2 M20,0C9,0,0,9,0,20s9,20,20,20s20-9,20-20
		S31,0,20,0L20,0z"/>
</g>
<path class="st1" d="M21,29V16c0-0.6-0.4-1-1-1s-1,0.4-1,1v13c-7.5,0.3-12.9,3.5-13.3,3.7l1,1.7c0.1-0.1,13-7.6,26.5,0l1-1.7
	C29.6,30,25.1,29.1,21,29z"/>
<path class="st1" d="M16.4,23L16.4,23c1.1,0,1.9-0.3,1.9-0.4c0.1-0.1,0.2-0.2,0.3-0.3c0.1-0.1,1.5-3.3-1.8-6.6
	c-3.1-3.1-7-3.4-7.2-3.5c-0.3,0-0.6,0.2-0.6,0.5c0,0.2-0.5,4.9,2.7,8.1C13.5,22.6,15.3,23,16.4,23z M16,16.6c2,2,1.9,3.9,1.7,4.8
	c-0.6-0.4-2.3-1.7-3.7-3.9c-0.1-0.2-0.4-0.2-0.5-0.1c-0.2,0.1-0.2,0.4-0.1,0.5c1.3,2,2.7,3.3,3.6,3.9c-0.1,0-0.3,0-0.5,0
	c-0.9,0-2.4-0.3-3.8-1.8c-2.1-2.1-2.4-5.2-2.4-6.5C11.4,13.8,13.9,14.5,16,16.6z"/>
<path class="st1" d="M21.6,23.7c0.1,0,0.6,0.3,1.4,0.3h0c0.9,0,2.2-0.3,3.5-1.6c2.3-2.3,2.5-5.1,2.5-5.2c0-0.3-0.2-0.6-0.5-0.7
	c0,0-0.2,0-0.5,0c-1,0-3.5,0.2-5.3,2c-2.4,2.4-1.3,4.8-1.3,4.9C21.3,23.6,21.4,23.7,21.6,23.7z M23.4,19.4c1.4-1.4,3.3-1.6,4.2-1.6
	c-0.2,0.9-0.7,2.5-2.1,3.8c-0.8,0.8-1.7,1.2-2.6,1.2c-0.2,0-0.3,0-0.4,0c0.4-0.5,1.2-1.6,2.6-2.4c0.2-0.1,0.3-0.4,0.1-0.6
	c-0.1-0.2-0.4-0.3-0.6-0.1c-1.2,0.8-2.1,1.6-2.6,2.2C22.2,21.2,22.5,20.3,23.4,19.4z"/>
</svg>
